<?xml version="1.0" standalone="no"?>
<!DOCTYPE svg PUBLIC "-//W3C//DTD SVG 20010904//EN"
 "http://www.w3.org/TR/2001/REC-SVG-20010904/DTD/svg10.dtd">
<svg version="1.0" xmlns="http://www.w3.org/2000/svg"
 width="264.000000pt" height="264.000000pt" viewBox="0 0 264.000000 264.000000"
 preserveAspectRatio="xMidYMid meet">
<metadata>
Created by potrace 1.11, written by Peter Selinger 2001-2013
</metadata>
<g transform="translate(0.000000,264.000000) scale(0.100000,-0.100000)"
fill="#000000" stroke="none">
<path d="M1274 2612 c-32 -28 -42 -37 -134 -112 -30 -25 -60 -49 -66 -55 -6
-5 -31 -26 -54 -45 -24 -19 -63 -52 -87 -72 -24 -21 -50 -38 -56 -38 -7 0 -17
-10 -22 -22 -6 -12 -21 -25 -35 -29 -14 -4 -21 -7 -17 -8 18 -2 -23 -31 -45
-31 -16 0 -19 -3 -10 -8 9 -6 -8 -25 -57 -63 l-70 -54 0 -705 c0 -388 3 -709
7 -715 4 -5 19 -17 33 -25 27 -16 110 -85 184 -155 23 -22 45 -40 49 -40 3 0
22 -13 42 -30 134 -110 180 -149 185 -157 3 -5 18 -17 32 -26 13 -9 57 -43 96
-75 l72 -59 44 36 c24 20 46 36 48 36 3 0 21 15 39 33 30 27 55 49 121 102 19
15 130 107 147 122 8 7 47 38 85 70 39 31 76 63 83 70 7 7 20 13 28 13 8 0 14
6 14 13 0 16 53 57 74 57 14 0 15 83 15 718 l0 717 -69 54 c-38 29 -67 57 -64
62 3 5 -2 9 -10 9 -9 0 -25 9 -36 20 -11 11 -24 20 -28 20 -5 0 -15 11 -22 25
-7 13 -16 22 -20 20 -4 -2 -21 8 -38 23 -49 43 -75 65 -115 95 -21 16 -45 36
-55 46 -14 15 -93 79 -127 103 -5 4 -30 26 -55 48 -25 22 -52 39 -60 39 -8 0
-29 -12 -46 -27z m94 -602 c17 -16 32 -35 32 -40 0 -6 4 -8 10 -5 5 3 21 -5
35 -19 14 -15 28 -26 31 -26 3 0 32 -21 65 -47 53 -43 59 -51 56 -80 -2 -18 1
-33 6 -33 4 0 7 -189 5 -420 l-3 -421 -34 -29 c-18 -17 -37 -30 -41 -30 -3 0
-28 -20 -53 -45 -26 -25 -51 -45 -55 -45 -4 0 -15 -8 -24 -17 -26 -29 -69 -63
-78 -63 -5 0 -20 10 -34 23 -13 12 -42 36 -62 52 -21 17 -54 45 -73 63 -19 17
-38 32 -42 32 -3 0 -21 13 -39 28 l-32 29 1 384 c1 211 2 391 2 399 0 8 0 24
0 35 -2 74 2 95 20 100 11 4 19 13 19 21 0 8 5 14 10 14 19 0 25 4 43 27 10
13 22 23 27 23 5 0 21 11 35 26 14 14 30 22 35 19 6 -3 10 -1 10 5 0 15 62 69
80 69 8 0 30 -13 48 -29z"/>
<path d="M1220 1930 c0 -5 5 -10 11 -10 5 0 7 5 4 10 -3 6 -8 10 -11 10 -2 0
-4 -4 -4 -10z"/>
<path d="M1400 1930 c0 -5 7 -10 16 -10 8 0 12 5 9 10 -3 6 -10 10 -16 10 -5
0 -9 -4 -9 -10z"/>
<path d="M1560 1807 c0 -9 4 -18 9 -21 5 -4 8 1 7 9 -3 21 -16 31 -16 12z"/>
<path d="M601 2064 c0 -11 3 -14 6 -6 3 7 2 16 -1 19 -3 4 -6 -2 -5 -13z"/>
<path d="M1545 260 c-3 -5 -1 -10 4 -10 6 0 11 5 11 10 0 6 -2 10 -4 10 -3 0
-8 -4 -11 -10z"/>
<path d="M1391 44 c0 -11 3 -14 6 -6 3 7 2 16 -1 19 -3 4 -6 -2 -5 -13z"/>
</g>
</svg>
